<?xml version="1.0" standalone="no"?><!DOCTYPE svg PUBLIC "-//W3C//DTD SVG 1.1//EN" "http://www.w3.org/Graphics/SVG/1.1/DTD/svg11.dtd"><svg t="1741952162403" class="icon" viewBox="0 0 1024 1024" version="1.1" xmlns="http://www.w3.org/2000/svg" p-id="1145" xmlns:xlink="http://www.w3.org/1999/xlink" width="64" height="64"><path d="M478.615008 478.615008m-478.615008 0a478.615008 478.615008 0 1 0 957.230016 0 478.615008 478.615008 0 1 0-957.230016 0Z" fill="#1296db" p-id="1146"></path><path d="M547.415915 888.748185s96.760001-34.819242 67.404947-26.283941a488.586154 488.586154 0 0 0-55.678879 19.383908c-37.770701 16.312795-35.178203 65.889333-7.179225 82.880165 27.998978 17.628986 143.903579 20.221484 181.67428-26.762555 72.270866-80.287668-50.134922-299.652879-50.134922-299.65288s-29.315169-24.808211-136.086201-38.488623c-106.132878-13.720297-207.08076 52.886958-207.08076 52.886958s-62.499143 47.622193-108.087222 203.650686c-32.545821 110.998797 98.993537 101.865227 98.993537 101.865227s41.001352 67.883562 120.451444 65.889333c96.361155-1.91446 147.174115-18.905293 181.67428-46.306002-48.499654-1.91446-78.094015-8.455532-88.862853-19.583331-8.375763-8.654955-7.378648-31.827898 2.911574-69.478945z" fill="#a296db" p-id="1147"></path><path d="M714.971053 687.809651s37.092663-64.613026 3.908689-88.144931c-33.862012-24.130173-20.181599-21.537675-28.637132-48.260346-16.950948-41.160891-65.769679-49.616422-65.769679-49.616423s-58.630338-3.948574-107.449069 0c-48.818731 3.908689-134.131856 39.804815-134.131856 39.804815s-105.494725 77.69517-14.956719 117.499984a515.986863 515.986863 0 0 1 73.587058 82.92005s182.272549-139.03766 248.720265-101.865227l24.728443 47.662078z" fill="#a296db" p-id="1148"></path><path d="M505.576987 375.991973c143.225541 33.941781 104.178533-110.958913 104.178533-110.958912s-11.087914 9.13357-403.073606 157.304799c-43.59385 97.916654 178.443629 101.18719 178.443629 101.187189l-7.179225 97.916654 63.177181 84.874395s47.343001-49.935499 102.104535-92.013735c31.907667-24.489135 71.792251-46.266117 91.933966-54.243035l-59.268492-181.474857" fill="#D7F0FF" p-id="1149"></path><path d="M609.75552 265.033061s-11.087914 9.13357-403.073606 157.304799c-43.59385 97.916654 178.443629 101.18719 178.443629 101.187189l-7.179225 97.916654 62.379489 87.187701c42.277659-45.468426 78.173785-79.09113 107.688377-100.788344a319.954133 319.954133 0 0 1 95.284271-48.38l-64.094526-183.469087c15.594872-13.720297 24.728442-24.369481 27.281055-31.987436 13.560759-40.28343 3.270536-78.971476 3.270536-78.971476z" fill="#FFFFFF" p-id="1150"></path><path d="M402.834298 793.78299h113.351988l-18.227255 190.648312h-76.179555z" fill="#FFFFFF" p-id="1151"></path><path d="M272.690901 939.162299s-2.592498-35.257972 30.591476-48.300231c52.767305-20.261369 103.54038 16.950948 104.856571 60.704337 1.276307 44.391542-41.041237 38.528508-56.636109 30.711129-15.634757-7.179225-20.221484-29.394938-39.725046-25.526133-18.905293 4.586727-37.132548 4.586727-39.086892-17.589102" fill="#a296db" p-id="1152"></path><path d="M402.834298 408.617563c0 7.179225-5.823149 13.082144-13.002374 13.082143a13.082144 13.082144 0 0 1 0-26.124402c7.179225 0 13.042259 5.224881 13.042259 13.042259" fill="#a296db" p-id="1153"></path><path d="M538.122807 887.790955l-29.275285-15.674642s14.956719 32.665474-58.630338 36.574164c-29.913438 1.316191-33.183974 54.163265 22.135944 66.607255 82.720627 17.589102 119.175137-50.29446 65.809564-87.506777" fill="#a296db" p-id="1154"></path></svg>